<svg width="22" height="25" viewBox="0 0 22 25" fill="none" xmlns="http://www.w3.org/2000/svg">
<path fill-rule="evenodd" clip-rule="evenodd" d="M15.4978 14.2902H9.3877L12.0799 6.12427L15.1257 6.14222L13.3571 11.5275L16.3939 11.5293L15.4978 14.2902Z" fill="url(#paint0_linear_0_9420)"/>
<path fill-rule="evenodd" clip-rule="evenodd" d="M3.02421 24.8906H0C0 24.8906 5.50834 7.98319 6.79462 4.03635C7.39641 2.18972 9.12162 0.939453 11.0682 0.939453H16.4748C18.1052 0.939453 19.4659 1.62628 20.312 2.78691C21.1574 3.94759 21.3972 5.43273 20.9042 6.94781C20.4106 8.46289 19.9443 9.89308 19.5174 11.2035C18.9411 12.9728 17.3444 14.192 15.4983 14.2912C15.4983 14.2912 15.4888 14.2881 18.0753 6.34833C18.3037 5.64767 18.2203 4.96185 17.8616 4.46998C17.5034 3.97817 16.8991 3.6871 16.0994 3.6871H11.4601C10.5491 3.6871 9.74185 4.27217 9.46004 5.13632L3.02421 24.8906Z" fill="#F0145A"/>
<defs>
<linearGradient id="paint0_linear_0_9420" x1="9.38726" y1="12.7261" x2="16.1762" y2="16.2841" gradientUnits="userSpaceOnUse">
<stop stop-color="#F0145A"/>
<stop offset="1" stop-color="#693264"/>
</linearGradient>
</defs>
</svg>
