<svg width="132" height="42" viewBox="0 0 132 42" fill="none" xmlns="http://www.w3.org/2000/svg">
<path d="M51.5566 17.2656C49.8691 17.2656 48.5508 17.5645 47.6016 18.1621L47.9707 13.4863H58.3945V8.79297H43.1016L42.2051 23.207L45.9844 23.5586L46.3711 23.0488C46.6348 22.7324 47.1094 22.3984 47.7949 22.0645C48.4629 21.748 49.2363 21.5723 50.1152 21.5723C51.3633 21.5723 52.4004 21.9766 53.209 22.7676C54.0176 23.5762 54.4219 24.5605 54.4219 25.7207C54.4219 26.8984 54.0527 27.8477 53.2793 28.5859C52.5059 29.3242 51.4512 29.6758 50.0977 29.6758C49.043 29.6758 48.0234 29.4473 47.0039 28.9727C46.002 28.5156 45.3516 28.1465 45.0527 27.8652C44.7539 27.584 44.5254 27.3555 44.3496 27.1621L41.0977 30.5723L41.4668 30.9766C41.6777 31.2754 42.0469 31.6094 42.5566 31.9961C43.084 32.3828 43.6816 32.752 44.3672 33.1387C45.0527 33.5254 45.9492 33.8594 47.0391 34.1406C48.1289 34.4219 49.2715 34.5449 50.4668 34.5449C53.3145 34.5449 55.6172 33.7188 57.375 32.0488C59.1328 30.3789 60.0117 28.2695 60.0117 25.7207C60.0117 23.2949 59.2207 21.291 57.6035 19.6738C55.9863 18.0742 53.9824 17.2656 51.5566 17.2656ZM69.0293 21.3965C69.0293 18.7598 69.5566 16.7207 70.6289 15.2793C71.6836 13.8379 72.9492 13.1172 74.4258 13.1172C75.8848 13.1172 77.1504 13.8379 78.2227 15.2793C79.2773 16.7207 79.8223 18.7598 79.8223 21.3965C79.8223 24.0332 79.2773 26.0723 78.2227 27.5137C77.1504 28.9551 75.8848 29.6758 74.4258 29.6758C72.9492 29.6758 71.6836 28.9551 70.6289 27.5137C69.5566 26.0723 69.0293 24.0332 69.0293 21.3965ZM85.2188 21.3965C85.2188 17.459 84.1641 14.2949 82.0723 11.8867C79.9629 9.47852 77.4141 8.26562 74.4258 8.26562C71.4199 8.26562 68.8711 9.47852 66.7793 11.8867C64.6699 14.2949 63.6328 17.459 63.6328 21.3965C63.6328 25.334 64.6699 28.5156 66.7793 30.9238C68.8711 33.3496 71.4199 34.5449 74.4258 34.5449C77.4141 34.5449 79.9629 33.3496 82.0723 30.9238C84.1641 28.5156 85.2188 25.334 85.2188 21.3965ZM94.5879 21.3965C94.5879 18.7598 95.1152 16.7207 96.1875 15.2793C97.2422 13.8379 98.5078 13.1172 99.9844 13.1172C101.443 13.1172 102.709 13.8379 103.781 15.2793C104.836 16.7207 105.381 18.7598 105.381 21.3965C105.381 24.0332 104.836 26.0723 103.781 27.5137C102.709 28.9551 101.443 29.6758 99.9844 29.6758C98.5078 29.6758 97.2422 28.9551 96.1875 27.5137C95.1152 26.0723 94.5879 24.0332 94.5879 21.3965ZM110.777 21.3965C110.777 17.459 109.723 14.2949 107.631 11.8867C105.521 9.47852 102.973 8.26562 99.9844 8.26562C96.9785 8.26562 94.4297 9.47852 92.3379 11.8867C90.2285 14.2949 89.1914 17.459 89.1914 21.3965C89.1914 25.334 90.2285 28.5156 92.3379 30.9238C94.4297 33.3496 96.9785 34.5449 99.9844 34.5449C102.973 34.5449 105.521 33.3496 107.631 30.9238C109.723 28.5156 110.777 25.334 110.777 21.3965ZM124.277 31.8379V25.7207H130.412V21.2207H124.277V15.1035H120.146V21.2207H114.029V25.7207H120.146V31.8379H124.277Z" fill="#F0145A"/>
<path d="M16.097 8.55298C9.25252 8.55298 3.68402 14.1215 3.68402 20.966C3.68402 27.811 9.25252 33.38 16.097 33.38C22.9415 33.38 28.51 27.811 28.51 20.966C28.5105 14.1215 22.942 8.55298 16.097 8.55298ZM22.9555 20.0585V20.059L19.362 22.659L20.746 26.889C20.768 26.955 20.7795 27.0255 20.7795 27.0975C20.7795 27.467 20.4805 27.767 20.111 27.767C19.964 27.767 19.829 27.72 19.719 27.6405L16.0975 25.021L12.476 27.6405C12.366 27.72 12.231 27.767 12.0845 27.767C11.7145 27.767 11.415 27.4675 11.415 27.0975C11.415 27.025 11.427 26.955 11.449 26.889L12.8335 22.659L9.24002 20.059V20.0585C9.07202 19.9375 8.96302 19.74 8.96302 19.517C8.96302 19.1475 9.26202 18.8485 9.63202 18.8485H14.0805L15.458 14.638C15.542 14.3645 15.7965 14.1655 16.098 14.1655C16.399 14.1655 16.654 14.3645 16.7375 14.638L18.115 18.8485H22.5635C22.933 18.8485 23.2325 19.1475 23.2325 19.517C23.232 19.74 23.123 19.9375 22.9555 20.0585Z" fill="#F0145A"/>
</svg>
